<?xml version="1.0" standalone="no"?>
<!DOCTYPE svg PUBLIC "-//W3C//DTD SVG 20010904//EN"
 "http://www.w3.org/TR/2001/REC-SVG-20010904/DTD/svg10.dtd">
<svg version="1.0" xmlns="http://www.w3.org/2000/svg"
 width="1080.000000pt" height="1350.000000pt" viewBox="0 0 1080.000000 1350.000000"
 preserveAspectRatio="xMidYMid meet">

<g transform="translate(0.000000,1350.000000) scale(0.100000,-0.100000)"
fill="#000000" stroke="none">
<path d="M5185 12594 c-402 -29 -705 -110 -1030 -274 -503 -253 -899 -652
-1145 -1155 -93 -191 -140 -314 -186 -491 -57 -226 -77 -387 -77 -644 0 -252
19 -409 73 -623 l30 -118 -24 -58 c-72 -169 -136 -408 -173 -641 -17 -108 -18
-215 -18 -1695 0 -1486 1 -1587 18 -1695 62 -381 171 -693 346 -989 217 -366
486 -649 841 -886 331 -221 686 -357 1100 -422 163 -25 587 -25 750 0 414 65
768 201 1100 422 171 114 273 198 421 345 455 454 724 1031 779 1676 8 90 10
584 8 1634 -4 1617 -2 1535 -54 1795 -24 120 -80 306 -130 432 -36 90 -42 116
-35 137 21 54 71 328 82 450 14 158 7 468 -16 616 -84 561 -367 1099 -781
1489 -403 379 -927 622 -1469 680 -107 12 -340 20 -410 15z m173 -101 c-27 -2
-69 -2 -95 0 -27 2 -5 3 47 3 52 0 74 -1 48 -3z m-225 -10 c-7 -2 -19 -2 -25
0 -7 3 -2 5 12 5 14 0 19 -2 13 -5z m370 0 c-7 -2 -19 -2 -25 0 -7 3 -2 5 12
5 14 0 19 -2 13 -5z m-560 -20 c-7 -2 -19 -2 -25 0 -7 3 -2 5 12 5 14 0 19 -2
13 -5z m754 1 c-3 -3 -12 -4 -19 -1 -8 3 -5 6 6 6 11 1 17 -2 13 -5z m-314
-151 c-40 -2 -107 -2 -150 0 -43 1 -10 3 72 3 83 0 118 -2 78 -3z m-396 -19
c-3 -3 -12 -4 -19 -1 -8 3 -5 6 6 6 11 1 17 -2 13 -5z m660 0 c-3 -3 -12 -4
-19 -1 -8 3 -5 6 6 6 11 1 17 -2 13 -5z m-710 -10 c-3 -3 -12 -4 -19 -1 -8 3
-5 6 6 6 11 1 17 -2 13 -5z m766 -1 c-7 -2 -19 -2 -25 0 -7 3 -2 5 12 5 14 0
19 -2 13 -5z m682 -33 c3 -6 -1 -7 -9 -4 -18 7 -21 14 -7 14 6 0 13 -4 16 -10z
m-703 -69 c419 -75 792 -261 1112 -553 l89 -82 -62 -12 c-33 -7 -79 -23 -101
-35 l-39 -22 -57 49 c-271 235 -552 382 -874 458 -221 53 -531 66 -745 32
-348 -55 -657 -186 -930 -395 -128 -98 -334 -313 -410 -428 -23 -37 -33 -43
-61 -43 -56 0 -74 -27 -74 -112 0 -40 -5 -80 -10 -88 -7 -10 -10 10 -10 66 0
88 -10 110 -53 122 l-28 7 57 85 c122 183 313 391 474 517 287 224 645 380
1000 438 143 22 158 23 390 20 162 -3 244 -9 332 -24z m593 -79 c-3 -3 -11 0
-18 7 -9 10 -8 11 6 5 10 -3 15 -9 12 -12z m-670 -192 c341 -58 655 -205 923
-432 45 -39 82 -72 82 -74 0 -3 -10 -24 -22 -47 -12 -23 -32 -76 -44 -117
l-23 -75 0 142 c-1 146 -8 186 -35 196 -22 9 -177 -12 -193 -25 -7 -6 -13 -30
-13 -54 0 -24 -5 -44 -10 -44 -6 0 -30 20 -54 45 -25 25 -51 45 -60 45 -9 0
-60 22 -114 49 -376 189 -797 229 -1207 115 -242 -67 -455 -189 -678 -387
l-65 -58 -94 -10 c-117 -12 -125 -14 -142 -47 -13 -25 -14 -25 -20 -4 -5 13
-20 25 -38 30 l-31 8 61 74 c33 41 102 116 154 166 321 311 739 496 1188 528
102 7 324 -5 435 -24z m-20 -334 c106 -22 204 -51 293 -88 l73 -30 -20 -22
c-21 -22 -21 -32 -21 -468 0 -383 2 -447 15 -458 11 -9 38 -10 101 -5 121 10
124 13 125 163 l1 117 40 -118 c23 -69 47 -121 57 -126 25 -14 229 8 247 26
10 11 14 46 15 141 l1 127 21 -70 c27 -88 88 -157 157 -175 74 -20 77 -23 38
-30 -72 -13 -68 18 -68 -491 0 -458 0 -458 21 -470 13 -6 38 -9 60 -5 22 4 39
2 39 -3 0 -22 -55 -161 -95 -241 -77 -153 -160 -267 -294 -401 -228 -227 -476
-362 -796 -431 -148 -32 -455 -32 -605 1 -426 91 -773 327 -1002 681 -58 88
-108 182 -108 200 0 5 13 10 29 10 38 0 41 11 41 135 l0 103 43 10 c99 25 160
101 161 201 1 76 -28 122 -97 155 -46 23 -66 26 -176 27 -94 1 -125 -2 -132
-12 -5 -9 -9 22 -9 77 l0 91 36 6 c64 11 64 9 66 226 l1 196 7 -135 c7 -148
17 -179 70 -223 17 -15 47 -29 68 -33 49 -9 271 14 298 31 14 9 25 10 31 4 9
-9 146 3 195 17 21 6 26 19 52 134 l21 94 44 9 c23 5 45 6 48 3 3 -3 13 -47
22 -97 11 -62 21 -95 33 -102 11 -8 51 -5 140 11 67 12 148 24 178 26 110 9
279 44 333 69 100 46 174 140 203 262 12 48 12 44 13 -82 1 -147 10 -170 61
-160 14 3 67 11 116 17 51 7 96 19 107 28 16 14 17 49 17 462 0 396 -2 449
-16 461 -13 10 -36 11 -127 0 -164 -18 -157 -8 -158 -204 l0 -162 -18 61 c-44
153 -137 234 -270 234 -71 0 -263 -31 -288 -46 l-23 -14 -1 -398 c-1 -252 -4
-386 -10 -367 -5 17 -40 183 -78 370 -38 187 -73 348 -76 357 -11 28 -30 29
-173 8 -174 -25 -179 -27 -191 -48 -6 -11 -42 -187 -81 -393 -38 -206 -72
-378 -74 -384 -3 -5 -5 65 -5 156 -1 130 -4 169 -15 178 -9 8 -35 10 -80 5
-74 -8 -94 9 -25 20 76 12 80 18 77 99 l-3 72 -56 1 c-100 2 -105 27 -8 38 86
9 99 22 99 107 0 57 -3 70 -20 82 -20 14 -20 16 27 56 171 151 459 284 719
331 136 24 430 22 559 -4z m1329 -255 c2 -3 6 -18 10 -33 6 -26 4 -28 -22 -28
-25 0 -83 43 -71 53 26 22 73 27 83 8z m-92 -186 c2 -21 11 -34 31 -43 35 -17
30 -26 -6 -13 -23 9 -47 57 -47 96 0 22 19 -12 22 -40z m-3507 15 c-3 -5 -23
-9 -43 -9 l-37 2 40 7 c22 4 41 8 43 9 2 0 0 -3 -3 -9z m2031 -46 c7 -41 -9
-105 -31 -124 -13 -11 -15 0 -15 84 0 93 1 96 20 86 11 -6 22 -26 26 -46z
m1919 -114 c97 -195 162 -401 202 -640 24 -147 24 -494 0 -638 -36 -214 -75
-352 -149 -527 -28 -66 -54 -124 -58 -128 -4 -5 -35 44 -68 108 l-61 117 30
76 c16 43 41 119 55 171 13 52 25 95 27 96 1 0 16 5 32 11 l30 9 3 459 c3 514
5 496 -67 496 -35 0 -36 2 -54 58 -14 47 -17 95 -17 282 l0 225 22 -35 c12
-19 45 -82 73 -140z m-4078 -57 c-2 -32 -3 -8 -3 52 0 61 1 87 3 58 2 -29 2
-78 0 -110z m1468 -65 l7 -68 -27 0 c-23 0 -26 3 -22 23 3 12 9 46 13 75 9 68
20 56 29 -30z m-1101 -664 c11 -8 36 -14 55 -14 l36 0 -3 -70 -4 -70 -34 0
c-72 0 -74 -5 -74 -155 0 -83 -4 -135 -10 -135 -6 0 -10 51 -10 133 0 90 -4
137 -12 145 -7 7 -32 12 -55 12 l-44 0 3 62 c3 61 3 62 35 69 64 13 63 10 63
247 0 143 4 228 13 256 10 36 13 10 17 -212 5 -236 6 -255 24 -268z m3456 386
c12 -7 12 -12 2 -22 -8 -8 -12 -45 -12 -110 0 -80 -3 -98 -15 -98 -12 0 -15
17 -15 92 0 95 -12 127 -49 129 -20 1 27 17 54 18 11 0 27 -4 35 -9z m-3796
-396 c11 -8 35 -14 53 -14 l33 0 0 -313 0 -313 26 -53 c15 -29 36 -57 48 -63
16 -7 35 -42 66 -120 l43 -109 -50 -104 -51 -104 -50 107 c-93 199 -148 382
-182 607 -34 226 -25 538 23 770 12 59 12 57 17 -108 5 -152 7 -170 24 -183z
m-337 204 c-3 -8 -6 -5 -6 6 -1 11 2 17 5 13 3 -3 4 -12 1 -19z m4870 -20 c-3
-8 -6 -5 -6 6 -1 11 2 17 5 13 3 -3 4 -12 1 -19z m-4700 -30 c-3 -7 -5 -2 -5
12 0 14 2 19 5 13 2 -7 2 -19 0 -25z m-180 -10 c-3 -7 -5 -2 -5 12 0 14 2 19
5 13 2 -7 2 -19 0 -25z m4710 -20 c-3 -7 -5 -2 -5 12 0 14 2 19 5 13 2 -7 2
-19 0 -25z m-4540 -30 c-3 -8 -6 -5 -6 6 -1 11 2 17 5 13 3 -3 4 -12 1 -19z
m3963 -383 l0 -255 25 -16 c16 -10 39 -15 66 -12 l41 4 -6 -39 c-11 -68 -77
-250 -131 -362 -296 -614 -884 -1011 -1575 -1065 -190 -14 -370 2 -578 51
-340 82 -634 248 -887 503 -122 123 -209 234 -291 373 -50 85 -144 282 -144
302 0 4 21 11 46 15 59 8 116 40 139 78 20 35 35 23 35 -29 0 -18 6 -36 14
-40 8 -4 26 -34 41 -66 98 -216 282 -446 480 -602 623 -489 1509 -465 2107 58
214 188 385 442 472 703 30 88 36 99 62 106 53 14 54 21 54 295 0 218 2 253
15 253 13 0 15 -35 15 -255z m767 218 c-3 -10 -5 -4 -5 12 0 17 2 24 5 18 2
-7 2 -21 0 -30z m-4305 -254 c3 -116 5 -132 22 -145 11 -8 27 -14 36 -14 9 0
25 6 36 14 17 13 19 29 22 145 l4 131 54 0 54 0 0 -217 c0 -262 -8 -289 -84
-318 -59 -23 -155 -17 -194 11 -57 42 -62 68 -62 307 l0 217 54 0 54 0 4 -131z
m574 105 c130 -67 67 -274 -84 -274 -47 0 -52 -14 -52 -137 l0 -113 -55 0 -55
0 0 276 0 277 104 -5 c76 -3 113 -10 142 -24z m3731 -61 c-3 -10 -5 -4 -5 12
0 17 2 24 5 18 2 -7 2 -21 0 -30z m-180 -125 c-3 -8 -6 -5 -6 6 -1 11 2 17 5
13 3 -3 4 -12 1 -19z m-4550 -30 c-3 -8 -6 -5 -6 6 -1 11 2 17 5 13 3 -3 4
-12 1 -19z m4540 -40 c-3 -7 -5 -2 -5 12 0 14 2 19 5 13 2 -7 2 -19 0 -25z
m-4710 -20 c-3 -7 -5 -2 -5 12 0 14 2 19 5 13 2 -7 2 -19 0 -25z m180 0 c-3
-8 -6 -5 -6 6 -1 11 2 17 5 13 3 -3 4 -12 1 -19z m4700 -30 c-3 -7 -5 -2 -5
12 0 14 2 19 5 13 2 -7 2 -19 0 -25z m-4870 -20 c-3 -8 -6 -5 -6 6 -1 11 2 17
5 13 3 -3 4 -12 1 -19z m190 -80 c-3 -8 -6 -5 -6 6 -1 11 2 17 5 13 3 -3 4
-12 1 -19z m-170 -40 c-3 -8 -6 -5 -6 6 -1 11 2 17 5 13 3 -3 4 -12 1 -19z
m4202 -396 c117 -236 182 -437 216 -673 13 -91 15 -277 15 -1267 l0 -1161 -37
-6 c-99 -15 -176 -48 -292 -126 -123 -82 -167 -103 -245 -114 l-46 -7 0 310 0
311 51 -54 c67 -71 173 -143 304 -207 90 -43 110 -50 133 -42 20 7 28 17 30
41 3 31 1 32 -117 91 -144 72 -196 107 -272 183 -49 49 -109 140 -109 165 0 4
24 -16 54 -44 60 -57 143 -113 223 -149 46 -21 59 -23 80 -14 20 9 24 17 21
44 -2 26 -10 36 -43 52 -147 75 -239 148 -294 233 -17 27 -31 52 -31 57 0 4
22 -13 49 -38 59 -55 167 -127 191 -127 9 0 25 9 35 20 27 30 12 61 -46 95
-118 69 -226 209 -245 320 l-7 39 68 -67 c71 -70 169 -137 202 -137 27 0 43
19 43 52 0 23 -10 34 -63 68 -76 48 -166 139 -197 200 l-22 45 23 -21 c53 -48
144 -104 169 -104 32 0 50 17 50 47 0 16 -17 34 -62 64 -67 46 -139 113 -158
149 -13 25 -14 25 55 -22 59 -39 101 -41 114 -5 12 31 -1 51 -64 93 -63 41
-106 90 -135 151 -27 59 -25 71 8 41 70 -65 135 -75 148 -21 6 21 2 31 -22 50
-93 75 -116 99 -134 134 -11 21 -20 51 -20 66 0 61 -57 95 -92 56 -9 -10 -18
-40 -21 -66 -6 -58 -38 -103 -120 -165 -60 -46 -68 -64 -40 -94 28 -31 69 -19
137 41 l29 26 -7 -28 c-17 -71 -76 -140 -191 -220 -20 -15 -25 -26 -23 -50 3
-28 7 -32 37 -35 27 -3 47 5 95 39 l61 43 -36 -49 c-31 -44 -72 -80 -185 -161
-26 -19 -28 -24 -19 -50 20 -58 93 -36 200 60 28 24 51 43 53 41 7 -6 -38 -83
-77 -133 -23 -28 -78 -77 -122 -108 -44 -31 -83 -63 -86 -71 -10 -26 15 -63
43 -63 32 0 118 57 196 128 52 49 58 52 58 31 0 -42 -58 -148 -112 -205 -28
-30 -82 -75 -119 -100 -37 -24 -70 -52 -73 -60 -9 -23 20 -64 45 -64 30 0 125
64 197 133 52 51 61 56 53 33 -38 -100 -150 -202 -304 -278 -32 -16 -61 -36
-64 -44 -9 -24 6 -62 27 -69 38 -12 198 76 285 156 52 48 57 41 17 -22 -72
-112 -225 -224 -414 -302 -44 -19 -63 -48 -48 -77 21 -38 52 -35 162 18 131
64 216 121 290 193 l58 57 0 -304 0 -303 -52 16 c-67 19 -101 38 -214 117
-125 87 -196 110 -339 110 -163 0 -214 -20 -434 -173 -45 -32 -154 -71 -197
-71 l-24 0 0 331 0 331 53 -58 c73 -81 192 -165 330 -235 131 -65 171 -73 189
-35 6 14 8 31 5 39 -3 8 -66 44 -139 80 -197 98 -329 210 -393 337 l-18 34 59
-50 c73 -62 118 -91 222 -143 111 -56 169 -52 160 11 -2 18 -26 35 -111 78
-181 92 -278 178 -323 285 l-16 40 59 -58 c63 -62 120 -104 197 -143 40 -21
53 -24 73 -15 20 9 24 17 21 43 -3 28 -12 37 -72 72 -103 59 -198 153 -241
238 -20 40 -35 86 -35 105 l0 35 74 -69 c73 -67 154 -123 214 -145 27 -10 34
-9 52 7 36 33 22 55 -80 123 -52 35 -108 75 -123 90 -38 36 -94 112 -107 146
-9 26 -8 25 38 -13 68 -58 162 -111 194 -111 31 0 53 30 43 59 -3 10 -35 36
-72 57 -76 45 -172 134 -198 183 l-17 35 41 -36 c22 -19 64 -47 92 -62 42 -24
55 -26 75 -17 17 7 24 19 24 39 0 31 -17 51 -66 75 -76 39 -184 165 -184 215
0 6 28 -6 62 -28 85 -55 128 -51 128 11 0 23 -10 34 -57 63 -92 55 -134 109
-148 191 -9 49 -21 65 -48 65 -31 0 -57 -29 -57 -63 0 -69 -68 -155 -157 -201
-46 -23 -59 -51 -38 -82 23 -35 55 -30 129 21 63 43 66 44 66 21 0 -53 -102
-170 -190 -217 -47 -26 -60 -40 -60 -65 0 -24 24 -54 44 -54 15 0 126 67 161
97 38 34 30 15 -20 -50 -48 -60 -96 -100 -182 -148 -28 -17 -54 -37 -57 -46
-10 -24 21 -63 49 -63 32 0 136 63 201 123 61 56 68 46 22 -33 -43 -75 -124
-152 -220 -207 -44 -26 -82 -53 -85 -60 -10 -26 7 -63 32 -69 32 -8 155 64
244 143 l61 55 0 -34 c0 -90 -118 -234 -257 -316 -40 -24 -77 -52 -83 -62 -13
-25 1 -56 31 -65 30 -10 158 67 242 145 64 59 70 62 63 36 -24 -96 -151 -208
-331 -292 -97 -45 -116 -65 -95 -104 16 -29 58 -26 137 12 85 39 164 88 226
140 l49 41 -23 -44 c-30 -60 -139 -166 -228 -224 -40 -26 -120 -69 -176 -96
-56 -27 -105 -56 -109 -65 -16 -42 20 -72 72 -59 42 10 214 99 284 146 35 24
93 72 131 107 l67 65 0 -316 0 -316 -52 16 c-67 19 -101 38 -214 117 -125 87
-196 110 -339 110 -163 0 -214 -20 -434 -173 -40 -28 -153 -71 -187 -71 -12 0
-14 51 -14 303 l0 303 58 -56 c72 -70 152 -125 271 -185 137 -69 199 -70 189
-3 -2 18 -28 35 -123 83 -144 72 -200 110 -274 185 -46 46 -111 149 -111 174
0 4 16 -12 36 -34 77 -86 316 -239 371 -240 13 0 29 10 38 24 25 37 6 60 -88
107 -138 70 -240 155 -301 251 -17 27 -10 23 49 -25 117 -94 171 -112 196 -65
16 30 3 51 -58 88 -123 76 -223 204 -239 309 l-7 43 48 -51 c58 -61 187 -151
219 -151 28 0 46 18 46 47 0 25 5 20 -110 105 -59 44 -97 82 -127 127 -49 71
-49 90 0 44 40 -38 129 -93 150 -93 23 0 50 45 42 69 -3 11 -27 32 -53 47 -57
34 -149 119 -168 156 -14 27 -12 26 38 -12 84 -64 130 -65 136 -3 3 27 -3 34
-46 62 -67 43 -127 105 -152 158 -29 62 -25 67 26 28 62 -48 92 -54 116 -25
29 36 30 35 -83 131 -57 48 -89 112 -89 174 0 38 -16 55 -51 55 -35 0 -42 -11
-50 -84 -9 -73 -45 -128 -114 -174 -61 -40 -77 -73 -50 -102 26 -28 44 -25
107 19 l56 39 -8 -29 c-19 -65 -101 -158 -172 -195 -41 -21 -53 -50 -33 -80
26 -40 56 -32 150 41 l39 30 -33 -48 c-32 -47 -100 -107 -173 -153 -25 -16
-38 -32 -38 -46 0 -25 27 -58 47 -58 20 0 117 64 168 111 25 23 45 38 45 33 0
-5 -14 -32 -30 -61 -38 -67 -112 -140 -195 -193 -53 -35 -65 -48 -65 -69 0
-33 17 -51 46 -51 27 0 128 66 201 134 l56 51 -6 -35 c-20 -99 -112 -217 -232
-295 -80 -52 -88 -64 -62 -99 29 -40 104 -8 221 95 67 59 48 14 -30 -70 -69
-75 -136 -123 -254 -184 -41 -21 -79 -46 -83 -54 -14 -24 1 -62 27 -69 44 -11
256 110 344 197 23 23 42 38 42 34 0 -20 -58 -99 -108 -147 -72 -69 -140 -114
-272 -180 -83 -42 -106 -58 -108 -76 -5 -31 15 -52 47 -52 33 0 180 71 275
133 38 24 98 73 132 108 l64 63 0 -308 0 -308 -32 7 c-69 15 -127 44 -235 117
-109 75 -186 108 -285 123 l-38 6 0 1127 c0 1261 1 1292 69 1552 30 114 135
380 150 380 3 0 28 -36 54 -79 236 -395 631 -709 1072 -853 364 -119 724 -135
1090 -48 358 85 678 264 941 525 146 145 291 341 360 488 10 20 20 37 23 37 3
0 12 -12 20 -28z"/>
<path d="M6350 10504 c-124 -22 -201 -41 -212 -51 -12 -11 -18 -31 -18 -60 l0
-44 -27 19 c-44 30 -91 42 -168 42 -89 0 -383 -56 -407 -78 -16 -13 -18 -37
-19 -206 l0 -191 -25 83 c-43 147 -83 205 -170 248 -46 22 -64 26 -108 21
-154 -16 -272 -151 -331 -379 l-24 -93 -1 191 c0 156 -3 194 -15 204 -10 8
-38 10 -101 5 -120 -10 -124 -15 -124 -152 l-1 -108 -40 104 c-21 57 -44 110
-50 118 -8 9 -42 13 -125 13 -170 0 -154 51 -154 -488 0 -526 -11 -482 116
-482 122 0 124 2 125 158 l1 127 41 -120 c23 -66 46 -127 51 -134 7 -11 31
-13 114 -7 57 3 116 12 131 19 25 12 26 15 29 112 l3 99 29 -51 c48 -84 123
-123 234 -123 159 0 307 87 367 215 l29 60 0 -82 c0 -82 12 -113 43 -113 34 0
225 44 245 56 22 14 22 18 22 209 0 165 2 195 15 195 12 0 15 -30 17 -186 3
-161 5 -188 19 -197 19 -12 188 15 247 39 l32 13 0 203 c0 223 -2 233 -61 264
l-30 15 30 35 c45 51 72 110 78 170 5 48 8 54 29 54 l22 0 4 -297 c3 -279 4
-300 24 -333 33 -58 76 -80 153 -80 115 0 211 64 240 159 13 47 15 380 1 401
-6 10 -26 15 -62 15 l-53 0 -3 96 -3 96 46 6 c82 12 85 16 85 115 0 55 -4 92
-12 100 -18 18 -62 14 -278 -24z m-486 -327 c9 -13 7 -25 -9 -54 -32 -59 -45
-54 -45 17 0 57 1 61 21 58 12 -2 27 -11 33 -21z m-664 -117 c16 -29 16 -136
0 -155 -8 -9 -24 -15 -39 -13 -25 3 -26 6 -26 63 0 97 37 157 65 105z"/>
<path d="M3911 9946 c-8 -9 -11 -45 -9 -98 3 -82 3 -83 31 -86 43 -5 87 45 87
98 0 68 -75 127 -109 86z m69 -86 c0 -3 -7 -15 -15 -26 -13 -18 -14 -16 -14
26 0 42 1 44 14 26 8 -11 15 -23 15 -26z"/>
</g>
</svg>
